# xmcd
#
# Track frame offsets: 
#        150
#        16486
#        34152
#        47835
#        64824
#        82327
#        112576
#        132024
#        143051
#        154819
#        172354
#
# Disc length: 2488 seconds
#
# Revision: 1
# Processed by: cddbd v1.5.1PL2 Copyright (c) Steve Scherf et al.
# Submitted via: ExactAudioCopy v0.95a5
#
DISCID=9609b60b
DTITLE=Youth Group - Skeleton Jar
DYEAR=2005
DGENRE=Rock
TTITLE0=Shadowland
TTITLE1=Skeleton Jar
TTITLE2=Lillian Lies
TTITLE3=The Frankston Line
TTITLE4=Baby Body
TTITLE5=See-Saw
TTITLE6=Drowned
TTITLE7=Last Quarter
TTITLE8=Someone Else's Dream
TTITLE9=Why Don't The Buildings Cry?
TTITLE10=Piece Of Wood
EXTD=YEAR: 2005
EXTT0=
EXTT1=
EXTT2=
EXTT3=
EXTT4=
EXTT5=
EXTT6=
EXTT7=
EXTT8=
EXTT9=
EXTT10=
PLAYORDER=
